<svg width="42" height="42" viewBox="0 0 42 42" fill="none" xmlns="http://www.w3.org/2000/svg">
<g filter="url(#filter0_d)">
<path d="M38 16.885C38 21.3527 36.2317 25.5527 33.0208 28.7124C29.8108 31.8708 25.5421 33.6107 21.0021 33.6114H21C16.4592 33.6114 12.1898 31.8716 8.97919 28.7124C5.76834 25.5527 4.00002 21.3527 4.00002 16.885C4.00002 12.4173 5.76834 8.21654 8.97919 5.05762C12.1898 1.89844 16.4592 0.158569 21 0.158569H21.0021C25.5421 0.159335 29.8108 1.8992 33.0208 5.05762C36.2317 8.21654 38 12.4173 38 16.885Z" fill="#FFFEFD"/>
</g>
<path d="M27.4255 14.5848C24.6257 16.1646 25.1025 20.7762 28.1394 20.7762C29.4492 20.7762 30.5828 19.8074 31.0875 18.5688C32.2531 15.7082 29.8292 13.2279 27.4255 14.5848Z" fill="#FF7236"/>
<path d="M24.5497 15.1559C27.9089 15.1559 28.9147 9.54337 25.7233 8.62064C24.2692 8.20038 22.6158 9.20878 22.0848 11.0522C21.4889 13.1183 22.6612 15.1559 24.5497 15.1559Z" fill="#FF7236"/>
<path d="M23.6853 25.1463C23.2188 25.0195 22.3908 24.9377 21.5242 24.9259C20.6081 24.9127 19.649 24.9773 19.0284 25.1463C17.3523 25.6057 15.0717 24.4943 15.5721 22.186C16.035 20.052 17.698 20.1736 18.0912 18.1512C18.4875 16.1073 20.0273 15.1209 21.5242 15.198C22.9095 15.2695 24.2578 16.2525 24.6252 18.1516C25.0162 20.1754 26.6757 20.0527 27.1379 22.186C27.6401 24.4962 25.3547 25.6016 23.6853 25.1463Z" fill="#FF7236"/>
<path d="M18.6372 15.156C19.5874 15.156 20.4034 14.613 20.8569 13.782C22.2049 11.3109 19.9909 7.88996 17.4633 8.62259C14.2664 9.54787 15.2798 15.156 18.6372 15.156Z" fill="#FF7236"/>
<path d="M17.1189 18.9387C18.1975 16.3421 15.6408 13.1703 13.1991 14.1683C10.2578 15.3703 11.555 20.5545 14.7891 20.5545C15.8269 20.5545 16.7089 19.9258 17.1189 18.9387Z" fill="#FF7236"/>
<path d="M23.6854 25.1463C23.2189 25.0194 22.3909 24.9377 21.5243 24.9259V15.1979C22.9096 15.2695 24.2579 16.2524 24.6253 18.1516C25.0162 20.1754 26.6758 20.0526 27.138 22.1859C27.6402 24.4961 25.3548 25.6015 23.6854 25.1463Z" fill="#FF7236"/>
<defs>
<filter id="filter0_d" x="1.52588e-05" y="0.158569" width="42" height="41.4529" filterUnits="userSpaceOnUse" color-interpolation-filters="sRGB">
<feFlood flood-opacity="0" result="BackgroundImageFix"/>
<feColorMatrix in="SourceAlpha" type="matrix" values="0 0 0 0 0 0 0 0 0 0 0 0 0 0 0 0 0 0 127 0"/>
<feOffset dy="4"/>
<feGaussianBlur stdDeviation="2"/>
<feColorMatrix type="matrix" values="0 0 0 0 0 0 0 0 0 0 0 0 0 0 0 0 0 0 0.25 0"/>
<feBlend mode="normal" in2="BackgroundImageFix" result="effect1_dropShadow"/>
<feBlend mode="normal" in="SourceGraphic" in2="effect1_dropShadow" result="shape"/>
</filter>
</defs>
</svg>
